<svg width="56" height="47" viewBox="0 0 56 47" fill="none" xmlns="http://www.w3.org/2000/svg">
<g clip-path="url(#clip0_16_42)">
<path d="M27.0001 41.4C47.0001 30.9 48.8001 23.5 47.5001 15.3C44.5001 -2.69998 28.8001 9.50002 27.0001 11C25.2001 9.60002 9.50007 -2.59998 6.50007 15.3C5.10007 23.5 7.00007 30.9 27.0001 41.4Z" fill="#CB3C38"/>
<path d="M51.9001 5.19998C49.4001 1.99998 45.6001 0.199984 41.2001 -1.61733e-05C34.3001 -0.300016 29.5001 4.69998 27.6001 6.99998C25.7001 4.69998 20.9001 -0.300016 14.0001 -1.61733e-05C9.50005 0.199984 5.80005 1.99998 3.30005 5.19998C0.500055 8.69998 -0.599945 13.8 0.300055 18.5C0.400055 18.9 0.400055 19.2 0.500055 19.6C0.600055 20.1 1.20005 20.5 1.70005 20.4C1.80005 20.4 2.00005 20.3 2.10005 20.2C2.50005 19.9 11.7001 12.6 12.6001 11.8C13.1001 11.3 14.2001 10.8 15.2001 11.8C15.5001 12.1 15.6001 12.5 15.6001 12.8C15.6001 13.2 15.4001 13.5 15.1001 13.7L3.70005 24.4C3.30005 24.8 3.30005 25.4 3.60005 25.8C3.80005 26 4.10005 26.1 4.30005 26.1C4.60005 26.1 4.80005 26 5.00005 25.8L16.0001 15.8L18.0001 14C18.4001 13.6 19.0001 13.3 19.6001 13.3C20.0001 13.3 20.5001 13.5 20.7001 13.9C21.3001 14.6 21.3001 15.7 20.5001 16.4L18.9001 17.9L6.70005 29.1C6.30005 29.5 6.30005 30.1 6.60005 30.5C7.00005 30.9 7.60005 30.9 8.00005 30.6L19.0001 20.4H19.1001L19.6001 20C19.9001 19.8 20.3001 19.6 20.6001 19.7C21.1001 19.8 21.6001 20 21.8001 20.4C22.4001 21.2 22.2001 22.2 21.3001 23.1L17.7001 26.5L10.1001 33.6C9.70005 34 9.70005 34.6 10.1001 35C10.5001 35.4 11.1001 35.4 11.5001 35L18.7001 28.2C19.3001 28.3 19.7001 28.8 19.7001 29.4C19.8001 30.1 18.8001 32.1 17.2001 33.9C16.3001 35 14.1001 37.4 14.1001 37.4C13.9001 37.6 13.8001 37.9 13.9001 38.2C13.9001 38.5 14.1001 38.7 14.3001 38.9C18.4001 41.8 22.6001 44.5 27.0001 46.9C27.3001 47.1 27.7001 47.1 28.0001 46.9C32.4001 44.5 36.6001 41.8 40.7001 38.9C40.9001 38.7 41.1001 38.5 41.1001 38.2C41.1001 37.9 41.0001 37.6 40.9001 37.4C40.9001 37.4 38.7001 34.9 37.8001 33.9C36.2001 32 35.2001 30 35.3001 29.4C35.3001 28.8 35.7001 28.3 36.3001 28.2L43.5001 35C43.9001 35.4 44.5001 35.4 44.9001 35C45.3001 34.6 45.3001 34 44.9001 33.6L37.3001 26.5L33.8001 23C32.9001 22.2 32.7001 21.2 33.3001 20.4C33.6001 20 34.0001 19.7 34.5001 19.7C34.9001 19.7 35.2001 19.8 35.5001 20L36.0001 20.4H36.1001L47.2001 30.6C47.6001 31 48.2001 31 48.6001 30.6C49.0001 30.2 48.9001 29.6 48.5001 29.2L36.3001 17.8L34.7001 16.3C34.0001 15.6 33.9001 14.5 34.5001 13.8C34.8001 13.5 35.2001 13.3 35.6001 13.2C36.2001 13.2 36.8001 13.5 37.2001 14L39.1001 15.8L50.0001 25.9C50.4001 26.3 51.0001 26.3 51.4001 25.8C51.8001 25.4 51.8001 24.8 51.3001 24.4L40.0001 13.8C39.7001 13.6 39.6001 13.2 39.6001 12.9C39.6001 12.5 39.7001 12.1 40.0001 11.9C41.0001 10.8 42.1001 11.4 42.6001 11.9C43.5001 12.7 52.7001 19.9 53.1001 20.3C53.5001 20.6 54.2001 20.6 54.5001 20.1C54.6001 20 54.7001 19.8 54.7001 19.7C54.8001 19.3 54.9001 19 54.9001 18.6C55.8001 13.8 54.6001 8.69998 51.9001 5.19998ZM53.0001 17.6C49.5001 14.9 44.4001 10.8 43.8001 10.3C42.1001 8.79998 40.0001 8.89998 38.5001 10.4C38.1001 10.8 37.8001 11.3 37.7001 11.8C37.1001 11.4 36.3001 11.2 35.6001 11.2C34.6001 11.2 33.7001 11.7 33.1001 12.4C31.7001 14 31.9001 16.3 33.4001 17.7C32.7001 18 32.2001 18.4 31.7001 19C30.7001 20.4 30.5001 22.5 32.4001 24.3L34.8001 26.5C34.0001 27 33.4001 27.9 33.4001 28.9C33.1001 31.2 36.1001 34.6 36.4001 35C37.0001 35.7 38.1001 36.9 38.8001 37.7C35.2001 40.2 31.5001 42.6 27.7001 44.7C23.9001 42.6 20.2001 40.2 16.6001 37.7C17.3001 36.9 18.4001 35.7 19.0001 35C19.3001 34.6 22.3001 31.2 22.0001 28.9C21.9001 27.9 21.4001 27 20.6001 26.5L23.0001 24.3C24.9001 22.5 24.7001 20.4 23.7001 19C23.3001 18.4 22.7001 18 22.0001 17.7C23.5001 16.3 23.6001 13.9 22.3001 12.4C21.6001 11.7 20.7001 11.2 19.7001 11.2C19.0001 11.2 18.2001 11.4 17.6001 11.8C17.4001 11.3 17.2001 10.8 16.8001 10.4C15.3001 8.89998 13.2001 8.79998 11.5001 10.3C10.9001 10.8 5.80005 14.9 2.30005 17.6C1.70005 13.6 2.70005 9.39998 5.00005 6.49998C7.00005 3.79998 10.2001 2.19998 14.1001 1.99998C20.2001 1.69998 24.6001 6.49998 26.1001 8.39998C26.5001 8.89998 26.7001 9.19998 26.7001 9.19998C26.9001 9.49998 27.2001 9.69998 27.6001 9.69998C27.9001 9.69998 28.3001 9.49998 28.4001 9.19998C28.4001 9.09998 33.4001 1.49998 41.0001 1.89998C44.9001 2.09998 48.1001 3.59998 50.2001 6.29998C52.6001 9.39998 53.6001 13.6 53.0001 17.6Z" fill="black"/>
</g>
<defs>
<clipPath id="clip0_16_42">
<rect width="55.2" height="47" fill="white"/>
</clipPath>
</defs>
</svg>
