<svg width="460" height="467" viewBox="0 0 460 467" fill="none" xmlns="http://www.w3.org/2000/svg">
<g clip-path="url(#clip0_16_46)">
<path d="M30 146C21.7 146 14.5 149.9 9.2 155.2C3.9 160.5 0 167.7 0 176V306.7C0 325.4 2.1 337.2 6.5 346.3C10.9 355.4 16.9 360.7 22.4 366.7C33.4 379.8 102.3 462.4 102.3 462.4C104.2 464.7 107 466 110 466C114.1 466 117.9 463.5 119.4 459.6C120.9 455.7 119.9 451.3 116.8 448.5C115.4 446.8 48.2 366.3 37.4 353.5C37.3 353.4 37.2 353.3 37.1 353.2C30.9 346.4 27 342.9 24.4 337.5C21.8 332.2 19.9 323.7 19.9 306.6V176C19.9 174.3 21 171.5 23.2 169.3C25.4 167.1 28.2 166 29.9 166C31.6 166 34.4 167.1 36.6 169.3C38.8 171.5 39.9 174.3 39.9 176V296C39.9 298.7 41 301.2 42.8 303.1L52.6 312.9C53.2 320.5 57.1 327.4 62.8 333.1C65.9 336.2 102.2 372 122.7 393C125.2 395.6 128.9 396.7 132.4 395.8C135.9 394.9 138.7 392.2 139.6 388.8C140.5 385.3 139.6 381.6 137 379C116.2 357.7 79.3 321.3 76.9 318.9C73.1 315.1 72.3 312.7 72.3 311C72.3 309.3 73 306.9 76.9 303.1C80.8 299.3 83.1 298.5 84.8 298.5C86.5 298.5 88.9 299.2 92.7 303.1C97.3 307.7 147.7 358 152.6 363C152.6 363 152.7 363.1 152.8 363.2C172.8 382.8 179.8 400.8 179.8 436.1V456.1C179.8 459.7 181.6 463.1 184.8 464.9C187.9 466.7 191.8 466.7 194.9 464.9C198 463.1 199.9 459.7 199.9 456.1V436.1C199.9 397.8 190.1 371.6 166.9 349C160.8 342.8 111.5 293.6 107 289.1C100.8 282.9 93.2 278.7 84.9 278.7C76.6 278.7 69 283 62.8 289.1C61.8 290.1 61 291.2 60.1 292.3L59.9 292.1V176C59.9 167.7 56 160.5 50.7 155.2C45.4 149.9 38.3 146 30 146ZM430 146C421.7 146 414.5 149.9 409.2 155.2C403.9 160.5 400 167.7 400 176V291.9L399.8 292.1C398.9 291 398 289.9 397.1 288.9C390.9 282.7 383.3 278.5 375 278.5C366.7 278.5 359.1 282.8 352.9 288.9C348.4 293.4 299.1 342.6 293 348.8C269.8 371.5 260 397.7 260 435.9V455.9C260 459.5 261.8 462.9 265 464.7C268.1 466.5 272 466.5 275.1 464.7C278.2 462.9 280.1 459.5 280.1 455.9V435.9C280.1 400.7 287.1 382.7 307.1 363C307.1 363 307.2 362.9 307.3 362.8C312.2 357.8 362.6 307.5 367.2 302.9C371 299.1 373.4 298.3 375.1 298.3C376.8 298.3 379.2 299 383 302.9C386.8 306.8 387.6 309.1 387.6 310.8C387.6 312.5 386.9 314.9 383 318.7C380.7 321 343.7 357.5 322.9 378.8C320.3 381.3 319.3 385 320.3 388.6C321.2 392.1 324 394.8 327.5 395.6C331 396.5 334.7 395.4 337.2 392.8C357.7 371.8 394 336 397.1 332.9C402.8 327.2 406.7 320.3 407.3 312.7L417.1 302.9C419 301 420 298.5 420 295.8V176C420 174.3 421.1 171.5 423.3 169.3C425.5 167.1 428.3 166 430 166C431.7 166 434.5 167.1 436.7 169.3C438.9 171.5 440 174.3 440 176V306.7C440 323.8 438 332.3 435.5 337.6C433 343 429.1 346.4 422.8 353.3C422.7 353.4 422.6 353.5 422.5 353.6C411.6 366.6 342.3 449.6 342.3 449.6C339.8 452.6 339.3 456.7 340.9 460.2C342.5 463.7 346.1 466 350 466C353.5 466 356.8 464.2 358.6 461.3C360.2 459.3 426.6 379.7 437.6 366.8C443.1 360.7 449.1 355.5 453.5 346.4C457.9 337.3 460 325.5 460 306.8V176C460 167.7 456.1 160.5 450.8 155.2C445.5 149.9 438.3 146 430 146Z" fill="black"/>
<path d="M223.5 51.6001L296 94.3001V210H151V94.3001L223.5 51.6001Z" fill="#CB3C38"/>
<path d="M228.6 1.4C227 0.5 225.3 0 223.5 0C221.7 0 220 0.5 218.4 1.4L73.5 86.6V109.8L103.5 92.1V250C103.5 255.5 108 260 113.5 260H333.5C339 260 343.5 255.5 343.5 250V92.2L373.5 109.9V86.6L228.6 1.4ZM323.5 240H123.5V80.4L223.5 21.6L323.5 80.4V240Z" fill="black"/>
</g>
<defs>
<clipPath id="clip0_16_46">
<rect width="460" height="466.1" fill="white"/>
</clipPath>
</defs>
</svg>
