<svg width="126" height="135" viewBox="0 0 126 135" fill="none" xmlns="http://www.w3.org/2000/svg">
<g clip-path="url(#clip0_16_51)">
<path d="M65.9001 24.3999C68.9001 27.5999 72.7 30.0999 76.2 32.3999C78.5 33.8999 80.5001 35.4999 81.8001 37.1999C83.1001 38.8999 83.9001 40.5999 83.9001 42.9999C83.9001 45.3999 82.7 47.7999 80.5 49.7999H51.2001C49.0001 47.7999 47.8 45.3999 47.8 42.9999C47.8 40.6999 48.5 38.9999 49.8 37.2999C51.8 34.7999 55.2001 32.4999 58.9001 30.1999C61.4001 28.4999 63.8001 26.5999 65.9001 24.3999Z" fill="#CB3C38"/>
<path d="M29.9 54.3999C33.3 58.2999 37.7999 61.1999 41.7999 64.0999C46.9999 67.7999 50.7 71.1999 50.7 77.0999C50.7 80.2999 49.2 83.1999 46.5 85.6999H12.9C10.2 83.1999 8.69995 80.1999 8.69995 77.0999C8.69995 74.1999 9.59995 72.0999 11.1 69.9999C13.4 66.8999 17.5 64.1999 21.6 61.3999C24.7 59.4999 27.6 57.1999 29.9 54.3999Z" fill="#CB3C38"/>
<path d="M101.9 54.3999C105.3 58.2999 109.8 61.1999 113.8 64.0999C119 67.7999 122.7 71.1999 122.7 77.0999C122.7 80.2999 121.2 83.1999 118.5 85.6999H84.9C82.2 83.1999 80.7 80.2999 80.7 77.0999C80.7 74.1999 81.6 72.0999 83.1 69.9999C85.4 66.8999 89.5 64.1999 93.6 61.3999C96.7 59.4999 99.6 57.1999 101.9 54.3999Z" fill="#CB3C38"/>
<path d="M60 0V6H54V12H60V17.3C58.8 19.2 56.1 21.2 52.8 23.3C49.2 25.6 45.2 28 42.2 31.8C40.3 34.3 39 37.5 39 41.1C39 45.8 41.4 49.9 45 53V59.3C44.2 58.7 43.3 58 42.5 57.4C37.2 53.7 32 50.6 30 47.4V42H36V36H30V30H24V36H18V42H24V47.3C22.5 49.8 19.4 52.2 15.6 54.7C11.5 57.4 6.9 60.3 3.6 64.7C1.5 67.6 0 71.2 0 75.4C0 80.4 2.4 84.9 6 88.4V135H120V88.3C123.6 84.9 126 80.3 126 75.3C126 66.7 120.1 61.4 114.5 57.4C109.2 53.6 104 50.5 102 47.3V42H108V36H102V30H96V36H90V42H96V47.3C94.5 49.8 91.4 52.2 87.6 54.7C85.5 56.1 83.2 57.6 81 59.3V53C84.6 50 87 45.8 87 41.1C87 37.3 85.6 34.1 83.7 31.6C81.7 29.1 79.2 27.2 76.8 25.5C72.2 22.4 67.7 19.7 66.1 17.2V12H72.1V6H66.1V0H60ZM63.1 22.6C66.1 25.8 69.9 28.3 73.4 30.6C75.7 32.1 77.7 33.7 79 35.4C80.3 37.1 81.1 38.8 81.1 41.2C81.1 43.6 79.9 46 77.7 48H48.4C46.2 46 45 43.6 45 41.2C45 38.9 45.7 37.2 47 35.5C49 33 52.4 30.7 56.1 28.4C58.6 26.7 61 24.8 63.1 22.6ZM27.1 52.7C30.5 56.6 35 59.5 39 62.4C44.2 66.1 47.9 69.5 47.9 75.4C47.9 78.6 46.4 81.5 43.7 84H10.1C7.5 81.5 6 78.6 6 75.4C6 72.5 6.9 70.4 8.4 68.3C10.7 65.2 14.8 62.5 18.9 59.7C21.9 57.7 24.8 55.4 27.1 52.7ZM99.1 52.7C102.5 56.6 107 59.5 111 62.4C116.2 66.1 119.9 69.5 119.9 75.4C119.9 78.6 118.4 81.5 115.7 84H82.1C79.4 81.5 77.9 78.6 77.9 75.4C77.9 72.5 78.8 70.4 80.3 68.3C82.6 65.2 86.7 62.5 90.8 59.7C93.9 57.7 96.8 55.4 99.1 52.7ZM51 54H75V65.6C73.2 68.3 72 71.6 72 75.4C72 80.4 74.4 84.9 78 88.4V110.5H84V90H114V129H12V90H42V110.4H48V88.3C51.6 84.9 54 80.3 54 75.3C54 71.5 52.8 68.3 51 65.6V54ZM63 90C61.3 90 60 91.3 60 93V108H66V93C66 91.3 64.7 90 63 90ZM27 102C25.3 102 24 103.3 24 105V120H30V105C30 103.3 28.7 102 27 102ZM99 102C97.3 102 96 103.3 96 105V120H102V105C102 103.3 100.7 102 99 102Z" fill="black"/>
</g>
<defs>
<clipPath id="clip0_16_51">
<rect width="126" height="135" fill="white"/>
</clipPath>
</defs>
</svg>
