<?xml version="1.0" encoding="utf-8"?>
<!-- Generator: Adobe Illustrator 27.1.1, SVG Export Plug-In . SVG Version: 6.00 Build 0)  -->
<svg version="1.1" id="Layer_1" xmlns="http://www.w3.org/2000/svg" xmlns:xlink="http://www.w3.org/1999/xlink" x="0px" y="0px"
	 viewBox="0 0 128 128" style="enable-background:new 0 0 128 128;" xml:space="preserve">
<style type="text/css">
	.st0{fill:#FFFFFF;}
	.st1{fill:#FF6803;}
</style>
<path class="st0" d="M64,6.7C32.3,6.7,6.7,32.3,6.7,64s25.7,57.3,57.3,57.3s57.3-25.7,57.3-57.3C121.3,32.4,95.6,6.7,64,6.7z
	 M92.3,72L72.5,91.7c-4.7,4.7-12.3,4.7-17,0L35.7,72c-3.9-3.9-6-9.2-5.9-14.6c0.1-5.5,2.5-10.7,6.7-14.4c3.6-3.1,8.3-4.9,13.1-4.9
	C55,38,60.1,40,64,43.7c7.6-7.3,19.5-7.6,27.5-0.8c4.1,3.7,6.5,8.8,6.6,14.3C98.2,62.8,96.1,68.1,92.3,72z"/>
<path class="st1" d="M49.6,46.1c-2.8,0-5.6,1-7.7,2.8c-4.9,4.4-5.3,12-0.9,16.9c0.2,0.2,0.3,0.3,0.5,0.5l19.8,19.8
	c1.6,1.6,4.1,1.6,5.6,0l19.8-19.8c4.7-4.7,4.7-12.2,0-16.9c-0.2-0.2-0.3-0.3-0.5-0.5C81,44.8,73.6,45.3,69,50l-2.2,2.2
	c-1.6,1.6-4.1,1.6-5.6,0L59,50C56.5,47.5,53.1,46.1,49.6,46.1z"/>
</svg>
